<svg width="22" height="20" viewBox="0 0 22 20" fill="none" xmlns="http://www.w3.org/2000/svg">
<path d="M9.98763 0.85958C10.2875 -0.0606967 11.5894 -0.0606959 11.8892 0.859581L13.6403 6.23398C13.7744 6.64561 14.1582 6.92418 14.5911 6.92418H20.2519C21.2213 6.92418 21.6236 8.16521 20.8386 8.73398L16.2637 12.0486C15.9123 12.3033 15.7652 12.7555 15.8996 13.1682L17.6482 18.5349C17.9482 19.4557 16.895 20.2227 16.1107 19.6544L11.5251 16.3321C11.1751 16.0784 10.7017 16.0784 10.3517 16.3321L5.76616 19.6544C4.98191 20.2227 3.92862 19.4557 4.22864 18.5348L5.97721 13.1682C6.11167 12.7555 5.96459 12.3033 5.61313 12.0486L1.03825 8.73398C0.253246 8.16521 0.655577 6.92418 1.62497 6.92418H7.28573C7.71865 6.92418 8.10241 6.64561 8.23653 6.23398L9.98763 0.85958Z" fill="#070707"/>
</svg>
